<mxfile host="app.diagrams.net" modified="2024-02-06T13:25:53.170Z" agent="Mozilla/5.0 (X11; Linux x86_64) AppleWebKit/537.36 (KHTML, like Gecko) Chrome/114.0.0.0 Safari/537.36" version="23.1.1" etag="RkzjaOakv0hzIlEesMnh" type="github">
  <diagram name="Halaman-1" id="PPZJ2Z04DbU4w9wXYaz0">
    <mxGraphModel>
      <root>
        <mxCell id="0" />
        <mxCell id="1" parent="0" />
      </root>
    </mxGraphModel>
  </diagram>
</mxfile>
